<svg xmlns="http://www.w3.org/2000/svg">
  <!-- Иконки корпуса приложения: только интерфейс, на канву и в экспорт не попадают. -->
  <symbol id="u-search" viewBox="0 0 16 16"><circle cx="7" cy="7" r="4.6" fill="none" stroke="currentColor" stroke-width="1.5"/><path d="M10.4 10.4 L14 14" stroke="currentColor" stroke-width="1.5" stroke-linecap="round"/></symbol>
  <symbol id="u-undo" viewBox="0 0 16 16"><path d="M2.5 7 H9.5 a3.6 3.6 0 0 1 0 7.2 H6" fill="none" stroke="currentColor" stroke-width="1.4" stroke-linecap="round"/><path d="M5.4 3.6 L2 7 L5.4 10.4" fill="none" stroke="currentColor" stroke-width="1.4" stroke-linecap="round" stroke-linejoin="round"/></symbol>
  <symbol id="u-redo" viewBox="0 0 16 16"><path d="M13.5 7 H6.5 a3.6 3.6 0 0 0 0 7.2 H10" fill="none" stroke="currentColor" stroke-width="1.4" stroke-linecap="round"/><path d="M10.6 3.6 L14 7 L10.6 10.4" fill="none" stroke="currentColor" stroke-width="1.4" stroke-linecap="round" stroke-linejoin="round"/></symbol>
  <symbol id="u-lock" viewBox="0 0 16 16"><rect x="3" y="6.8" width="10" height="7.4" rx="1.4" fill="none" stroke="currentColor" stroke-width="1.4"/><path d="M5.4 6.8 V4.8 a2.6 2.6 0 0 1 5.2 0 V6.8" fill="none" stroke="currentColor" stroke-width="1.4"/></symbol>
  <symbol id="u-eye" viewBox="0 0 16 16"><path d="M1 8 C3 4.4 5.4 2.8 8 2.8 S13 4.4 15 8 C13 11.6 10.6 13.2 8 13.2 S3 11.6 1 8 Z" fill="none" stroke="currentColor" stroke-width="1.3"/><circle cx="8" cy="8" r="2.2" fill="none" stroke="currentColor" stroke-width="1.3"/></symbol>
  <symbol id="u-chevron" viewBox="0 0 16 16"><path d="M6 3.5 L10.5 8 L6 12.5" fill="none" stroke="currentColor" stroke-width="1.5" stroke-linecap="round" stroke-linejoin="round"/></symbol>
  <symbol id="u-warn" viewBox="0 0 16 16"><path d="M8 1.8 L15 14 H1 Z" fill="none" stroke="currentColor" stroke-width="1.3" stroke-linejoin="round"/><path d="M8 6.2 V9.6 M8 11.6 v.1" stroke="currentColor" stroke-width="1.5" stroke-linecap="round"/></symbol>
  <symbol id="u-grid" viewBox="0 0 16 16"><path d="M1.5 5.8 H14.5 M1.5 10.2 H14.5 M5.8 1.5 V14.5 M10.2 1.5 V14.5" stroke="currentColor" stroke-width="1.3"/></symbol>
  <symbol id="u-tree" viewBox="0 0 16 16"><path d="M2 3 H14 M5 8 H14 M5 13 H14 M2 3 V13 H5" fill="none" stroke="currentColor" stroke-width="1.3" stroke-linecap="round"/></symbol>
  <symbol id="u-folder" viewBox="0 0 16 16"><path d="M1.5 3.5 H6 L7.5 5 H14.5 V13 H1.5 Z" fill="none" stroke="currentColor" stroke-width="1.3" stroke-linejoin="round"/></symbol>
  <symbol id="u-view" viewBox="0 0 16 16"><rect x="1.5" y="2.5" width="13" height="11" rx="1.5" fill="none" stroke="currentColor" stroke-width="1.3"/><rect x="3.8" y="5" width="3.6" height="2.6" rx=".5" fill="none" stroke="currentColor" stroke-width="1.1"/><rect x="8.6" y="8.4" width="3.6" height="2.6" rx=".5" fill="none" stroke="currentColor" stroke-width="1.1"/><path d="M7.4 6.3 H10.4 V8.4" fill="none" stroke="currentColor" stroke-width="1.1"/></symbol>
  <symbol id="u-relation" viewBox="0 0 16 16"><circle cx="3.4" cy="12.6" r="2.2" fill="none" stroke="currentColor" stroke-width="1.4"/><circle cx="12.6" cy="3.4" r="2.2" fill="none" stroke="currentColor" stroke-width="1.4"/><path d="M5 11 L11 5" stroke="currentColor" stroke-width="1.4" stroke-linecap="round"/></symbol>
  <symbol id="u-plus" viewBox="0 0 16 16"><path d="M8 3 V13 M3 8 H13" stroke="currentColor" stroke-width="1.5" stroke-linecap="round"/></symbol>
  <symbol id="u-minus" viewBox="0 0 16 16"><path d="M3 8 H13" stroke="currentColor" stroke-width="1.5" stroke-linecap="round"/></symbol>
  <symbol id="u-close" viewBox="0 0 16 16"><path d="M4 4 L12 12 M12 4 L4 12" stroke="currentColor" stroke-width="1.5" stroke-linecap="round"/></symbol>
  <symbol id="u-fit" viewBox="0 0 16 16"><path d="M2 6 V2 H6 M10 2 H14 V6 M14 10 V14 H10 M6 14 H2 V10" fill="none" stroke="currentColor" stroke-width="1.4" stroke-linecap="round" stroke-linejoin="round"/></symbol>
  <symbol id="u-history" viewBox="0 0 16 16"><circle cx="8.5" cy="8" r="5.6" fill="none" stroke="currentColor" stroke-width="1.3"/><path d="M8.5 4.8 V8 L10.8 9.4" fill="none" stroke="currentColor" stroke-width="1.3" stroke-linecap="round"/><path d="M1.2 6.5 L2.9 8.6 L4.8 6.6" fill="none" stroke="currentColor" stroke-width="1.3" stroke-linecap="round" stroke-linejoin="round"/></symbol>
  <symbol id="u-pencil" viewBox="0 0 16 16"><path d="M2 14 L2.9 10.8 L10.7 3 a1.8 1.8 0 0 1 2.5 2.5 L5.4 13.2 Z" fill="none" stroke="currentColor" stroke-width="1.3" stroke-linejoin="round"/></symbol>
  <symbol id="u-trash" viewBox="0 0 16 16"><path d="M2.5 4.5 H13.5 M6 4.5 V2.5 H10 V4.5 M4 4.5 L4.8 14 H11.2 L12 4.5" fill="none" stroke="currentColor" stroke-width="1.3" stroke-linejoin="round"/></symbol>
  <symbol id="u-copy" viewBox="0 0 16 16"><rect x="5" y="5" width="9" height="9" rx="1.4" fill="none" stroke="currentColor" stroke-width="1.3"/><path d="M11 5 V2.5 H2 V11 H5" fill="none" stroke="currentColor" stroke-width="1.3"/></symbol>
  <symbol id="u-target" viewBox="0 0 16 16"><circle cx="8" cy="8" r="5.5" fill="none" stroke="currentColor" stroke-width="1.3"/><circle cx="8" cy="8" r="1.6" fill="currentColor"/></symbol>
  <symbol id="u-upload" viewBox="0 0 16 16"><path d="M8 11 V2.5 M4.6 5.8 L8 2.5 L11.4 5.8 M2 10.5 V13.5 H14 V10.5" fill="none" stroke="currentColor" stroke-width="1.4" stroke-linecap="round" stroke-linejoin="round"/></symbol>
  <symbol id="u-download" viewBox="0 0 16 16"><path d="M8 2.5 V11 M4.6 7.7 L8 11 L11.4 7.7 M2 10.5 V13.5 H14 V10.5" fill="none" stroke="currentColor" stroke-width="1.4" stroke-linecap="round" stroke-linejoin="round"/></symbol>
</svg>
